<svg xmlns="http://www.w3.org/2000/svg" width="54" height="72" viewBox="0 0 54 72">
    <g fill="none" fill-rule="evenodd">
        <g>
            <g>
                <g>
                    <g>
                        <path fill="#C2945C" d="M0 0l3.375 3.462L6.75 0l3.375 3.462L13.5 0l3.375 3.462L20.25 0l3.375 3.462L27 0l3.375 3.462L33.75 0l3.375 3.462L40.5 0l3.375 3.462L47.25 0l3.375 3.462L54 0v69.23c0 1.53-1.24 2.77-2.77 2.77H2.77C1.24 72 0 70.76 0 69.23V0z" transform="translate(-1231.000000, -1013.000000) translate(0.000000, 874.000000) translate(136.000000, 96.000000) translate(1095.000000, 43.000000)"/>
                        <path fill="#DB0007" d="M0 58.846h54v10.385C54 70.76 52.76 72 51.23 72H2.77C1.24 72 0 70.76 0 69.23V58.847z" transform="translate(-1231.000000, -1013.000000) translate(0.000000, 874.000000) translate(136.000000, 96.000000) translate(1095.000000, 43.000000)"/>
                        <path fill="#FFBC0D" d="M54 17.108c-.444-.097-.89-.146-1.342-.146-5.747 0-10.88 7.406-14.234 18.986-3.357-11.58-8.486-18.986-14.238-18.986-10.104 0-18.301 24.64-18.301 55.038h8.135c0-28.221 4.554-51.109 10.166-51.109 5.618 0 10.17 21.125 10.17 47.18h8.134c0-26.055 4.556-47.18 10.168-47.18.455 0 .904.151 1.344.443C54 18.692 54 20.077 54 17.108z" transform="translate(-1231.000000, -1013.000000) translate(0.000000, 874.000000) translate(136.000000, 96.000000) translate(1095.000000, 43.000000)"/>
                    </g>
                </g>
            </g>
        </g>
    </g>
</svg>
